<svg width="713" height="716" viewBox="0 0 713 716" fill="none"
	xmlns="http://www.w3.org/2000/svg">
	<g filter="url(#filter0_f_1_22)">
		<path d="M525.525 653.272C521.307 684.43 490.645 708.771 460.175 700.367C416.759 688.472 366.489 669.92 321.258 666.463C315.294 666.008 251.933 661.23 251.933 661.23C240.726 660.437 230.206 655.566 222.378 647.551L102.926 525.232C89.8718 511.867 86.3382 491.933 94.009 474.934C94.009 474.934 167.872 313.516 170.615 305.122C173.358 296.728 183.426 223.515 189.392 184.184C190.973 173.761 196.148 164.206 204.029 157.156L345.337 30.7562C364.997 13.1713 395.513 15.7772 411.868 36.4375L530.574 186.383C537.29 194.87 540.732 205.416 540.783 216.214C540.918 244.623 543.276 302.948 559.071 340.514C574.437 377.054 602.638 416.518 617.377 435.936C623.032 443.389 623.899 453.467 619.12 461.505C608.719 479.018 588.167 512.642 559.071 555.784C539.012 585.53 529.717 622.3 525.525 653.272Z" fill="black" fill-opacity="0.29"/>
	</g>
	<path d="M526.681 648.067C522.467 679.366 491.835 703.817 461.395 695.376C418.022 683.427 367.802 664.791 322.615 661.318C316.657 660.86 253.359 656.061 253.359 656.061C242.162 655.264 231.653 650.371 223.833 642.32L104.499 519.445C91.4573 506.019 87.9272 485.995 95.5905 468.919C95.5905 468.919 169.38 306.767 172.121 298.335C174.861 289.902 184.919 216.357 190.879 176.847C192.459 166.377 197.629 156.779 205.502 149.697L346.671 22.7223C366.311 5.05755 396.797 7.67528 413.136 28.4294L531.724 179.056C538.434 187.582 541.873 198.176 541.923 209.023C542.059 237.561 544.414 296.151 560.194 333.887C575.545 370.594 603.717 410.237 618.442 429.743C624.091 437.23 624.957 447.354 620.184 455.428C609.792 473.021 589.261 506.798 560.194 550.135C540.155 580.017 530.869 616.954 526.681 648.067Z" fill="#6C31E3"/>
	<path d="M236.692 651.608C292.11 539.099 290.564 458.497 266.983 400.974C245.28 348.041 204.915 314.652 173.099 293.932C172.429 296.925 171.457 299.847 170.199 302.653L95.5885 468.919C87.9253 485.995 91.4554 506.019 104.497 519.445L223.831 642.32C227.575 646.174 231.935 649.305 236.692 651.608Z" fill="url(#paint0_radial_1_22)"/>
	<path d="M461.409 695.359C491.844 703.801 522.471 679.35 526.684 648.05C530.314 621.104 537.763 589.784 552.713 562.467C518.411 488.631 476.932 450.342 431.461 433.371C383.328 415.408 330.722 421.33 277.421 434.274C289.337 488.499 282.204 559.318 236.754 651.598C241.93 654.103 247.573 655.629 253.404 656.045C253.404 656.045 286.2 658.807 325.203 661.567C364.206 664.327 422.248 684.499 461.409 695.359Z" fill="url(#paint1_radial_1_22)"/>
	<path d="M387.507 423.251C402.482 424.815 417.16 428.043 431.446 433.373C476.926 450.345 518.414 488.636 552.721 562.465C555.027 558.25 557.514 554.13 560.194 550.135C589.26 506.797 609.791 473.02 620.183 455.428C624.956 447.353 624.09 437.23 618.439 429.743C603.716 410.236 575.543 370.594 560.194 333.887C544.413 296.15 542.058 237.561 541.924 209.023C541.872 198.176 538.433 187.582 531.723 179.056L413.135 28.4291C412.502 27.6236 411.845 26.8457 411.17 26.0951C419.872 54.611 419.282 77.5503 413.914 98.4038C408.938 117.735 399.853 135.275 390.257 153.801L390.255 153.804C387.036 160.017 383.761 166.342 380.562 172.883C367.831 198.926 356.336 228.397 354.641 267.916C352.944 307.436 361.046 357.005 387.51 423.249L387.507 423.251Z" fill="url(#paint2_radial_1_22)"/>
	<path d="M387.49 423.249C361.028 357.007 352.922 307.436 354.619 267.914C356.316 228.392 367.811 198.921 380.544 172.877C383.743 166.334 387.019 160.009 390.239 153.794C399.833 135.268 408.918 117.73 413.894 98.4003C419.262 77.5421 419.852 54.5966 411.142 26.0687C394.413 7.50099 365.533 5.75116 346.665 22.7223L205.496 149.697C197.623 156.779 192.453 166.377 190.873 176.847L173.688 290.766C173.529 291.822 173.332 292.873 173.099 293.916C204.916 314.637 245.288 348.029 266.992 400.969C271.232 411.31 274.759 422.393 277.372 434.277C314.857 425.174 352.001 419.544 387.49 423.249Z" fill="url(#paint3_radial_1_22)"/>
	<path fill-rule="evenodd" clip-rule="evenodd" d="M354.896 265.311C353.194 304.515 358.088 349.488 384.495 415.593L376.203 414.845C352.511 345.862 347.355 310.493 349.08 270.747C350.807 230.981 363.655 200.403 376.46 174.32C379.703 167.714 387.27 155.309 390.508 149.082C400.095 130.646 406.476 120.907 411.955 104.056C419.611 80.5099 417.954 69.3575 417.082 58.2591C423.16 98.3793 400.088 133.266 382.645 168.798C369.939 194.682 356.596 226.126 354.896 265.311Z" fill="url(#paint4_radial_1_22)"/>
	<path fill-rule="evenodd" clip-rule="evenodd" d="M274.791 403.89C277.923 411.132 280.881 416.98 282.749 425.941L275.829 427.497C272.95 417.033 270.725 409.589 266.74 400.613C242.894 344.356 204.625 315.418 173.35 294.193C211.126 314.516 249.898 346.326 274.791 403.89Z" fill="url(#paint5_radial_1_22)"/>
	<path fill-rule="evenodd" clip-rule="evenodd" d="M283.151 433.019C296.365 494.509 281.624 572.627 238.183 648.562C274.493 573.306 292.096 501.027 277.436 434.245L283.151 433.019Z" fill="url(#paint6_radial_1_22)"/>
	<path fill-rule="evenodd" clip-rule="evenodd" d="M433.085 427.488C504.31 454.142 531.734 512.666 552.233 561.486C526.916 510.365 491.72 453.909 430.53 432.953C383.971 417.008 344.651 418.898 277.431 434.154L275.933 427.488C347.273 411.234 384.572 409.334 433.085 427.488Z" fill="url(#paint7_radial_1_22)"/>
	<defs>
		<filter id="filter0_f_1_22" x="77" y="6.08691" width="558.222" height="708.957" filterUnits="userSpaceOnUse" color-interpolation-filters="sRGB">
			<feFlood flood-opacity="0" result="BackgroundImageFix"/>
			<feBlend mode="normal" in="SourceGraphic" in2="BackgroundImageFix" result="shape"/>
			<feGaussianBlur stdDeviation="6.5" result="effect1_foregroundBlur_1_22"/>
		</filter>
		<radialGradient id="paint0_radial_1_22" cx="0" cy="0" r="1" gradientUnits="userSpaceOnUse" gradientTransform="translate(230.732 640.502) rotate(-104.574) scale(312.164 208.025)">
			<stop stop-color="white" stop-opacity="0.4"/>
			<stop offset="1" stop-opacity="0.1"/>
		</radialGradient>
		<radialGradient id="paint1_radial_1_22" cx="0" cy="0" r="1" gradientUnits="userSpaceOnUse" gradientTransform="translate(447.431 710.442) rotate(-115.936) scale(257.775 295.978)">
			<stop stop-color="white" stop-opacity="0.3"/>
			<stop offset="1" stop-opacity="0.25"/>
		</radialGradient>
		<radialGradient id="paint2_radial_1_22" cx="0" cy="0" r="1" gradientUnits="userSpaceOnUse" gradientTransform="translate(496.789 512.146) rotate(-82.4846) scale(512.246 378.451)">
			<stop stop-color="white" stop-opacity="0.55"/>
			<stop offset="1" stop-color="white" stop-opacity="0.05"/>
		</radialGradient>
		<radialGradient id="paint3_radial_1_22" cx="0" cy="0" r="1" gradientUnits="userSpaceOnUse" gradientTransform="translate(249.437 422.212) rotate(-77.7214) scale(437.431 298.317)">
			<stop stop-color="white" stop-opacity="0.83"/>
			<stop offset="1" stop-color="white" stop-opacity="0.4"/>
		</radialGradient>
		<radialGradient id="paint4_radial_1_22" cx="0" cy="0" r="1" gradientUnits="userSpaceOnUse" gradientTransform="translate(429.789 182.515) rotate(102.236) scale(227.604 153.482)">
			<stop stop-color="white" stop-opacity="0"/>
			<stop offset="1" stop-color="white" stop-opacity="0.17"/>
		</radialGradient>
		<radialGradient id="paint5_radial_1_22" cx="0" cy="0" r="1" gradientUnits="userSpaceOnUse" gradientTransform="translate(163.136 305.792) rotate(45.3237) scale(167.71 357.205)">
			<stop stop-color="white" stop-opacity="0.2"/>
			<stop offset="1" stop-color="white" stop-opacity="0.44"/>
		</radialGradient>
		<radialGradient id="paint6_radial_1_22" cx="0" cy="0" r="1" gradientUnits="userSpaceOnUse" gradientTransform="translate(289.751 385.149) rotate(80.2016) scale(196.566 417.419)">
			<stop stop-color="white" stop-opacity="0.12"/>
			<stop offset="1" stop-color="white" stop-opacity="0.35"/>
		</radialGradient>
		<radialGradient id="paint7_radial_1_22" cx="0" cy="0" r="1" gradientUnits="userSpaceOnUse" gradientTransform="translate(550.387 545.643) rotate(-152.297) scale(299.519 942.568)">
			<stop stop-color="white" stop-opacity="0.21"/>
			<stop offset="0.46738" stop-color="white" stop-opacity="0.19"/>
			<stop offset="1" stop-color="white" stop-opacity="0.29"/>
		</radialGradient>
	</defs>
</svg>
